<?xml version="1.0"?><svg width="640" height="480" xmlns="http://www.w3.org/2000/svg">
 <title>open book</title>
 <metadata id="metadata3153">image/svg+xml</metadata>
 <g>
  <title>Layer 1</title>
  <path fill="#ffffff" stroke="#000000" stroke-width="7" stroke-linejoin="round" stroke-miterlimit="4" stroke-dashoffset="0" id="path4995" d="m50.871342,66.611984c46.080982,0 136.801647,-34.606117 182.882107,-34.606117c46.080536,0 80.149017,15.359089 91.600983,36.606117c20.119324,-37.327318 76.5802,-36.606117 101.361359,-36.606117c88.8992,0 95.396088,34.606117 177.121613,34.606117c0,136.253906 0,272.507675 0,408.762161c-111.364349,0 -143.493286,-16.867401 -167.247467,-16.867401c-22.870392,0 -41.452972,-8.202942 -78.747375,16.243225l-30.488129,0.624176l-30.514496,0.260895c-10.068512,-19.069824 -54.461807,-17.899414 -75.782349,-17.899414c-46.070419,0 -103.740601,17.638519 -170.186245,17.638519c0,-136.254486 0,-272.508255 0,-408.762161z"/>
  <path fill="none" stroke="#000000" stroke-width="5" stroke-linejoin="round" stroke-miterlimit="4" stroke-dashoffset="0" d="m62.940445,66.145241c43.901901,0 131.34874,-32.686249 175.251068,-32.686249c58.090805,3.92395 63.382156,13.808784 91.232742,35.571815c19.168701,-34.116554 48.92099,-34.629074 94.666748,-35.533638c84.697357,0 87.672302,27.771572 167.561768,33.657547c0,124.533119 -0.871643,245.114449 -0.871643,369.647285c-49.633545,3.037384 -234.789703,-77.793427 -262.464417,24.620026c-20.263214,-94.889069 -176.75827,-21.132904 -264.362801,-24.620026c0,-124.532837 -1.013466,-246.123657 -1.013466,-370.656761z" id="rect4989"/>
  <path fill="#89a02c" stroke="#000000" stroke-width="4.7" stroke-linejoin="round" stroke-miterlimit="4" stroke-dashoffset="0" d="m327.371765,68.323975l1.079224,390.779633" id="path4997"/>
 </g>
</svg>